<svg width="54" height="28" viewBox="0 0 54 28" fill="none" xmlns="http://www.w3.org/2000/svg">
    <path d="M54 26C54 26.5304 53.7893 27.0391 53.4142 27.4142C53.0391 27.7893 52.5304 28 52 28C51.4696 28 50.9609 27.7893 50.5858 27.4142C50.2107 27.0391 50 26.5304 50 26C49.9982 21.6999 48.7364 17.4946 46.3704 13.904C44.0044 10.3134 40.638 7.49486 36.6874 5.79684C32.7368 4.09882 28.3752 3.59578 24.1418 4.3499C19.9084 5.10401 15.9887 7.08223 12.8675 10.04L19.415 16.585C19.695 16.8647 19.8858 17.2212 19.9631 17.6094C20.0404 17.9975 20.0007 18.3999 19.8492 18.7656C19.6977 19.1312 19.4412 19.4437 19.112 19.6634C18.7828 19.8832 18.3958 20.0003 18 20H2C1.46957 20 0.96086 19.7893 0.585787 19.4142C0.210714 19.0391 6.19601e-07 18.5304 6.19601e-07 18V1.99999C-0.000310855 1.6042 0.116818 1.21721 0.33656 0.888025C0.556301 0.558837 0.868774 0.302248 1.23442 0.150743C1.60007 -0.000761926 2.00244 -0.0403712 2.39061 0.0369296C2.77878 0.11423 3.13529 0.304965 3.415 0.584987L10.035 7.20499C13.7162 3.6864 18.3496 1.32627 23.3602 0.41752C28.3707 -0.49123 33.5379 0.0914092 38.2202 2.09313C42.9026 4.09484 46.8941 7.4275 49.6993 11.6775C52.5045 15.9275 54 20.9077 54 26Z" fill="#404040"/>
    </svg>
    