<svg width="178" height="199" viewBox="0 0 178 199" fill="none" xmlns="http://www.w3.org/2000/svg">
<path d="M132.562 66.4375V66.9375H133.062H162.438C166.2 66.9375 169.809 68.4323 172.47 71.0929C175.13 73.7536 176.625 77.3622 176.625 81.125V183.938C176.625 187.7 175.13 191.309 172.47 193.97C169.809 196.63 166.2 198.125 162.438 198.125H15.5625C11.7997 198.125 8.19109 196.63 5.53042 193.97C2.86975 191.309 1.375 187.7 1.375 183.938V81.125C1.375 77.3622 2.86975 73.7536 5.53042 71.0929C8.19109 68.4323 11.7997 66.9375 15.5625 66.9375H44.9375H45.4375V66.4375V44.4062C45.4375 32.8528 50.0271 21.7725 58.1967 13.6029C66.3662 5.43336 77.4465 0.84375 89 0.84375C100.553 0.84375 111.634 5.43336 119.803 13.6029C127.973 21.7725 132.562 32.8528 132.562 44.4062V66.4375ZM118.375 66.9375H118.875V66.4375V44.4062C118.875 36.4829 115.727 28.8841 110.125 23.2814C104.522 17.6788 96.9233 14.5312 89 14.5312C81.0767 14.5312 73.4778 17.6788 67.8752 23.2814C62.2725 28.8841 59.125 36.4829 59.125 44.4062V66.4375V66.9375H59.625H118.375Z" fill="#57C4E7" stroke="#276C82"/>
</svg>
