<svg width="32" height="35" viewBox="0 0 32 35" fill="none" xmlns="http://www.w3.org/2000/svg">
    <path d="M31.25 17.4827C31.2511 17.9281 31.1332 18.3658 30.9085 18.7504C30.6838 19.1349 30.3604 19.4525 29.9718 19.6702L3.73591 34.6718C3.35897 34.8855 2.9333 34.9985 2.49998 34.9999C2.10036 34.9991 1.70677 34.9025 1.35218 34.7182C0.997592 34.5339 0.69235 34.2673 0.462037 33.9407C0.231724 33.6142 0.0830518 33.2372 0.0284838 32.8413C-0.0260842 32.4454 0.015042 32.0422 0.148414 31.6655L4.42185 19.1733C4.46396 19.0497 4.54372 18.9424 4.64993 18.8665C4.75614 18.7906 4.88347 18.7498 5.01404 18.7499H16.25C16.4213 18.7503 16.5909 18.7154 16.7483 18.6475C16.9056 18.5795 17.0473 18.48 17.1645 18.355C17.2817 18.23 17.372 18.0823 17.4297 17.9209C17.4874 17.7596 17.5113 17.5881 17.5 17.4171C17.4716 17.0957 17.3229 16.7968 17.0836 16.5804C16.8443 16.3639 16.532 16.2459 16.2094 16.2499H5.02498C4.8946 16.2501 4.76741 16.2096 4.66122 16.1339C4.55503 16.0583 4.47516 15.9513 4.43279 15.828L0.145289 3.32802C-0.0216756 2.84904 -0.0389869 2.3306 0.0956547 1.84154C0.230296 1.35249 0.51052 0.915961 0.899114 0.589929C1.28771 0.263896 1.76629 0.0637851 2.2713 0.0161683C2.77631 -0.0314485 3.28385 0.0756821 3.72654 0.323334L29.9765 15.3061C30.3626 15.5235 30.684 15.8397 30.9078 16.2221C31.1315 16.6046 31.2496 17.0396 31.25 17.4827Z" fill="white"/>
    </svg>
    